<svg width="24" height="24" viewBox="0 0 24 24" fill="none" xmlns="http://www.w3.org/2000/svg">
<path fill-rule="evenodd" clip-rule="evenodd" d="M6.79507 5.30799C6.38441 4.89733 5.71861 4.89733 5.30796 5.30799C4.8973 5.71864 4.8973 6.38445 5.30796 6.7951L10.5129 12L5.30801 17.2049C4.89735 17.6156 4.89735 18.2814 5.30801 18.692C5.71866 19.1027 6.38446 19.1027 6.79512 18.692L12 13.4871L17.2048 18.692C17.6155 19.1026 18.2813 19.1026 18.6919 18.692C19.1026 18.2813 19.1026 17.6155 18.6919 17.2049L13.4871 12L18.692 6.79511C19.1027 6.38446 19.1027 5.71866 18.692 5.308C18.2813 4.89735 17.6155 4.89735 17.2049 5.308L12 10.5129L6.79507 5.30799Z" fill="#B2B0AB"/>
</svg>
